<mxfile host="app.diagrams.net" modified="2021-11-25T15:07:25.465Z" agent="5.0 (Macintosh; Intel Mac OS X 10_15_7) AppleWebKit/537.36 (KHTML, like Gecko) Chrome/96.0.4664.55 Safari/537.36" etag="3y2G6O6mqbFm_oOg25Tb" version="14.9.8" type="github">
  <diagram name="Page-1" id="bfe91b75-5d2c-26a0-9c1d-138518896778">
    <mxGraphModel dx="1298" dy="748" grid="1" gridSize="10" guides="1" tooltips="1" connect="1" arrows="1" fold="1" page="1" pageScale="1" pageWidth="1100" pageHeight="850" background="none" math="0" shadow="0">
      <root>
        <mxCell id="0" />
        <mxCell id="1" parent="0" />
        <mxCell id="7c3789c024ecab99-55" style="edgeStyle=none;html=1;labelBackgroundColor=none;endArrow=none;endFill=0;strokeWidth=2;fontFamily=Verdana;fontSize=28;fontColor=#6881B3;" parent="1" source="7c3789c024ecab99-8" edge="1">
          <mxGeometry relative="1" as="geometry">
            <mxPoint x="1053" y="682" as="targetPoint" />
          </mxGeometry>
        </mxCell>
        <mxCell id="JZWuLZqwumF22ZQ-6etd-23" style="edgeStyle=orthogonalEdgeStyle;rounded=0;orthogonalLoop=1;jettySize=auto;html=1;endArrow=none;endFill=0;strokeWidth=2;" edge="1" parent="1" source="7c3789c024ecab99-8" target="JZWuLZqwumF22ZQ-6etd-17">
          <mxGeometry relative="1" as="geometry" />
        </mxCell>
        <mxCell id="7c3789c024ecab99-8" value="" style="fontColor=#0066CC;verticalAlign=top;verticalLabelPosition=bottom;labelPosition=center;align=center;html=1;fillColor=#CCCCCC;strokeColor=#6881B3;gradientColor=none;gradientDirection=north;strokeWidth=2;shape=mxgraph.networks.firewall;rounded=0;shadow=0;comic=0;" parent="1" vertex="1">
          <mxGeometry x="825" y="632" width="100" height="100" as="geometry" />
        </mxCell>
        <mxCell id="JZWuLZqwumF22ZQ-6etd-6" style="edgeStyle=orthogonalEdgeStyle;rounded=0;orthogonalLoop=1;jettySize=auto;html=1;entryX=0.5;entryY=1;entryDx=0;entryDy=0;entryPerimeter=0;strokeWidth=2;endArrow=none;endFill=0;" edge="1" parent="1" source="7c3789c024ecab99-20" target="JZWuLZqwumF22ZQ-6etd-8">
          <mxGeometry relative="1" as="geometry" />
        </mxCell>
        <mxCell id="7c3789c024ecab99-20" value="" style="fontColor=#0066CC;verticalAlign=top;verticalLabelPosition=bottom;labelPosition=center;align=center;html=1;fillColor=#CCCCCC;strokeColor=#6881B3;gradientColor=none;gradientDirection=north;strokeWidth=2;shape=mxgraph.networks.pc;rounded=0;shadow=0;comic=0;" parent="1" vertex="1">
          <mxGeometry x="1230.0000000000002" y="820" width="100" height="70" as="geometry" />
        </mxCell>
        <mxCell id="7c3789c024ecab99-53" value="Internet" style="html=1;fillColor=#CCCCCC;strokeColor=#6881B3;gradientColor=none;gradientDirection=north;strokeWidth=2;shape=mxgraph.networks.cloud;fontColor=#6881B3;rounded=0;shadow=0;comic=0;align=center;fontSize=28;" parent="1" vertex="1">
          <mxGeometry x="1335" y="480" width="230" height="105" as="geometry" />
        </mxCell>
        <mxCell id="7c3789c024ecab99-56" style="edgeStyle=none;html=1;labelBackgroundColor=none;endArrow=none;endFill=0;strokeWidth=2;fontFamily=Verdana;fontSize=28;fontColor=#6881B3;exitX=0.51;exitY=0.36;exitDx=0;exitDy=0;exitPerimeter=0;" parent="1" source="JZWuLZqwumF22ZQ-6etd-8" target="7c3789c024ecab99-53" edge="1">
          <mxGeometry relative="1" as="geometry">
            <Array as="points">
              <mxPoint x="1281" y="533" />
            </Array>
          </mxGeometry>
        </mxCell>
        <mxCell id="7c3789c024ecab99-60" style="edgeStyle=none;html=1;labelBackgroundColor=none;endArrow=none;endFill=0;strokeWidth=2;fontFamily=Verdana;fontSize=28;fontColor=#6881B3;" parent="1" edge="1">
          <mxGeometry relative="1" as="geometry">
            <mxPoint x="1103" y="785" as="sourcePoint" />
            <mxPoint x="1103" y="697" as="targetPoint" />
          </mxGeometry>
        </mxCell>
        <mxCell id="JZWuLZqwumF22ZQ-6etd-26" style="edgeStyle=orthogonalEdgeStyle;rounded=0;orthogonalLoop=1;jettySize=auto;html=1;endArrow=none;endFill=0;strokeWidth=2;" edge="1" parent="1" source="JZWuLZqwumF22ZQ-6etd-5" target="7c3789c024ecab99-53">
          <mxGeometry relative="1" as="geometry" />
        </mxCell>
        <mxCell id="JZWuLZqwumF22ZQ-6etd-5" value="" style="fontColor=#0066CC;verticalAlign=top;verticalLabelPosition=bottom;labelPosition=center;align=center;html=1;outlineConnect=0;fillColor=#CCCCCC;strokeColor=#6881B3;gradientColor=none;gradientDirection=north;strokeWidth=2;shape=mxgraph.networks.mobile;" vertex="1" parent="1">
          <mxGeometry x="1520" y="632" width="30" height="68" as="geometry" />
        </mxCell>
        <mxCell id="JZWuLZqwumF22ZQ-6etd-9" style="edgeStyle=orthogonalEdgeStyle;rounded=0;orthogonalLoop=1;jettySize=auto;html=1;endArrow=none;endFill=0;strokeWidth=2;entryX=1;entryY=0.5;entryDx=0;entryDy=0;entryPerimeter=0;" edge="1" parent="1" source="JZWuLZqwumF22ZQ-6etd-8">
          <mxGeometry relative="1" as="geometry">
            <mxPoint x="1153" y="682" as="targetPoint" />
          </mxGeometry>
        </mxCell>
        <mxCell id="JZWuLZqwumF22ZQ-6etd-8" value="" style="fontColor=#0066CC;verticalAlign=top;verticalLabelPosition=bottom;labelPosition=center;align=center;html=1;fillColor=#CCCCCC;strokeColor=#6881B3;gradientColor=none;gradientDirection=north;strokeWidth=2;shape=mxgraph.networks.firewall;rounded=0;shadow=0;comic=0;" vertex="1" parent="1">
          <mxGeometry x="1230" y="632" width="100" height="100" as="geometry" />
        </mxCell>
        <mxCell id="JZWuLZqwumF22ZQ-6etd-10" value="PDL和OA应用服务器" style="text;html=1;align=center;verticalAlign=middle;resizable=0;points=[];autosize=1;strokeColor=none;" vertex="1" parent="1">
          <mxGeometry x="1038" y="900" width="130" height="20" as="geometry" />
        </mxCell>
        <mxCell id="JZWuLZqwumF22ZQ-6etd-11" value="PDL生产现场服务器" style="text;html=1;align=center;verticalAlign=middle;resizable=0;points=[];autosize=1;strokeColor=none;" vertex="1" parent="1">
          <mxGeometry x="515" y="740" width="120" height="20" as="geometry" />
        </mxCell>
        <mxCell id="JZWuLZqwumF22ZQ-6etd-12" value="防火墙" style="text;html=1;align=center;verticalAlign=middle;resizable=0;points=[];autosize=1;strokeColor=none;" vertex="1" parent="1">
          <mxGeometry x="850" y="740" width="50" height="20" as="geometry" />
        </mxCell>
        <mxCell id="JZWuLZqwumF22ZQ-6etd-13" value="防火墙" style="text;html=1;align=center;verticalAlign=middle;resizable=0;points=[];autosize=1;strokeColor=none;" vertex="1" parent="1">
          <mxGeometry x="1230" y="740" width="50" height="20" as="geometry" />
        </mxCell>
        <mxCell id="JZWuLZqwumF22ZQ-6etd-14" value="" style="fontColor=#0066CC;verticalAlign=top;verticalLabelPosition=bottom;labelPosition=center;align=center;html=1;outlineConnect=0;fillColor=#CCCCCC;strokeColor=#6881B3;gradientColor=none;gradientDirection=north;strokeWidth=2;shape=mxgraph.networks.server_storage;" vertex="1" parent="1">
          <mxGeometry x="530" y="630" width="105" height="105" as="geometry" />
        </mxCell>
        <mxCell id="JZWuLZqwumF22ZQ-6etd-16" value="" style="fontColor=#0066CC;verticalAlign=top;verticalLabelPosition=bottom;labelPosition=center;align=center;html=1;outlineConnect=0;fillColor=#CCCCCC;strokeColor=#6881B3;gradientColor=none;gradientDirection=north;strokeWidth=2;shape=mxgraph.networks.server_storage;" vertex="1" parent="1">
          <mxGeometry x="1053" y="785" width="105" height="105" as="geometry" />
        </mxCell>
        <mxCell id="JZWuLZqwumF22ZQ-6etd-22" style="edgeStyle=orthogonalEdgeStyle;rounded=0;orthogonalLoop=1;jettySize=auto;html=1;entryX=0.88;entryY=0.5;entryDx=0;entryDy=0;entryPerimeter=0;endArrow=none;endFill=0;strokeWidth=2;" edge="1" parent="1" source="JZWuLZqwumF22ZQ-6etd-17" target="JZWuLZqwumF22ZQ-6etd-14">
          <mxGeometry relative="1" as="geometry" />
        </mxCell>
        <mxCell id="JZWuLZqwumF22ZQ-6etd-17" value="" style="fontColor=#0066CC;verticalAlign=top;verticalLabelPosition=bottom;labelPosition=center;align=center;html=1;outlineConnect=0;fillColor=#CCCCCC;strokeColor=#6881B3;gradientColor=none;gradientDirection=north;strokeWidth=2;shape=mxgraph.networks.switch;" vertex="1" parent="1">
          <mxGeometry x="670" y="667.5" width="100" height="30" as="geometry" />
        </mxCell>
        <mxCell id="JZWuLZqwumF22ZQ-6etd-18" value="" style="fontColor=#0066CC;verticalAlign=top;verticalLabelPosition=bottom;labelPosition=center;align=center;html=1;outlineConnect=0;fillColor=#CCCCCC;strokeColor=#6881B3;gradientColor=none;gradientDirection=north;strokeWidth=2;shape=mxgraph.networks.switch;" vertex="1" parent="1">
          <mxGeometry x="1054.5" y="667" width="100" height="30" as="geometry" />
        </mxCell>
        <mxCell id="JZWuLZqwumF22ZQ-6etd-25" style="edgeStyle=orthogonalEdgeStyle;rounded=0;orthogonalLoop=1;jettySize=auto;html=1;endArrow=none;endFill=0;strokeWidth=2;" edge="1" parent="1" source="JZWuLZqwumF22ZQ-6etd-24" target="7c3789c024ecab99-53">
          <mxGeometry relative="1" as="geometry">
            <Array as="points">
              <mxPoint x="1430" y="600" />
              <mxPoint x="1430" y="600" />
            </Array>
          </mxGeometry>
        </mxCell>
        <mxCell id="JZWuLZqwumF22ZQ-6etd-24" value="" style="fontColor=#0066CC;verticalAlign=top;verticalLabelPosition=bottom;labelPosition=center;align=center;html=1;fillColor=#CCCCCC;strokeColor=#6881B3;gradientColor=none;gradientDirection=north;strokeWidth=2;shape=mxgraph.networks.pc;rounded=0;shadow=0;comic=0;" vertex="1" parent="1">
          <mxGeometry x="1380.0000000000002" y="632" width="100" height="70" as="geometry" />
        </mxCell>
      </root>
    </mxGraphModel>
  </diagram>
</mxfile>
